<svg xmlns="http://www.w3.org/2000/svg" viewBox="0 0 100 100" class="icon"><defs><style>.stroke-thick-center{fill:none;stroke:#000;stroke-miterlimit:10;stroke-width:10px;}</style></defs><title>lock-closed</title><path d="M70,58V80H30V58H70m6.73-10H23.27A3.26,3.26,0,0,0,20,51.27V86.73A3.26,3.26,0,0,0,23.27,90H76.73A3.26,3.26,0,0,0,80,86.73V51.27A3.26,3.26,0,0,0,76.73,48Z"></path><path class="stroke-thick-center" d="M65,58V40A14.85,14.85,0,0,0,50,25h0A14.85,14.85,0,0,0,35,40V58"></path><path d="M50,65a4,4,0,1,1-4,4,4,4,0,0,1,4-4m0-4a8,8,0,1,0,8,8,8,8,0,0,0-8-8Z"></path></svg>